<svg width="15" height="16" viewBox="0 0 15 16" fill="none" xmlns="http://www.w3.org/2000/svg">
<g clip-path="url(#clip0_5_6109)">
<path d="M7.62399 8C9.55319 8 11.1171 6.43442 11.1171 4.50317C11.1171 2.57193 9.55319 1.00635 7.62399 1.00635C5.69479 1.00635 4.13086 2.57193 4.13086 4.50317C4.13086 6.43442 5.69479 8 7.62399 8Z" stroke="black" stroke-width="0.999093"/>
<path d="M13.7634 14.4945C12.8398 11.1536 10.388 8.83424 7.62483 8.83424C4.86155 8.83424 2.4098 11.1537 1.48625 14.4945H13.7634ZM14.9997 15.4936H0.25C0.957988 11.0554 4.05996 7.83514 7.62483 7.83514C11.1896 7.83514 14.291 11.0554 14.9994 15.4921L14.9997 15.4936Z" fill="black"/>
</g>
<defs>
<clipPath id="clip0_5_6109">
<rect width="14.75" height="15" fill="white" transform="translate(0.25 0.5)"/>
</clipPath>
</defs>
</svg>
